# xmcd CD database file
#
# Track frame offsets:
#	180
#	53715
#	84434
#	118269
#	151156
#	183389
#	224863
#	278501
#
# Disc length: 4356 seconds
#
# Revision: 2
# Processed by: cddbd v1.5.2PL0 Copyright (c) Steve Scherf et al.
# Submitted via: CDex 1.51
#
DISCID=6d110208
DTITLE=Clark Terry - The Second Set
DYEAR=1995
DGENRE=Jazz
TTITLE0=One Foot In The Gutter
TTITLE1=Opus Ocean
TTITLE2=Michelle
TTITLE3=Serenade To A Bus Seat
TTITLE4=Joonji
TTITLE5=Ode To A Flugelhorn
TTITLE6=Funky Mama
TTITLE7=Interview
EXTD=YEAR: 1995
EXTT0=
EXTT1=
EXTT2=
EXTT3=
EXTT4=
EXTT5=
EXTT6=
EXTT7=
PLAYORDER=
